# Tiled2Unity generated file. Do not modify by hand.
# Wavefront file for 'Mapa_mesh_0007.obj'

# Vertices (Count = 120)
v -2.24 -0.64 0
v -2.56 -0.64 0
v -2.56 -0.32 0
v -2.24 -0.32 0
v -2.56 -0.64 0
v -2.88 -0.64 0
v -2.88 -0.32 0
v -2.56 -0.32 0
v -3.52 -0.64 0
v -3.84 -0.64 0
v -3.84 -0.32 0
v -3.52 -0.32 0
v -3.84 -0.64 0
v -4.16 -0.64 0
v -4.16 -0.32 0
v -3.84 -0.32 0
v -3.52 -0.96 0
v -3.84 -0.96 0
v -3.84 -0.64 0
v -3.52 -0.64 0
v -3.84 -0.96 0
v -4.16 -0.96 0
v -4.16 -0.64 0
v -3.84 -0.64 0
v -1.28 -1.6 0
v -1.6 -1.6 0
v -1.6 -1.28 0
v -1.28 -1.28 0
v -1.6 -1.6 0
v -1.92 -1.6 0
v -1.92 -1.28 0
v -1.6 -1.28 0
v -1.92 -1.6 0
v -2.24 -1.6 0
v -2.24 -1.28 0
v -1.92 -1.28 0
v -1.28 -1.92 0
v -1.6 -1.92 0
v -1.6 -1.6 0
v -1.28 -1.6 0
v -1.6 -1.92 0
v -1.92 -1.92 0
v -1.92 -1.6 0
v -1.6 -1.6 0
v -1.92 -1.92 0
v -2.24 -1.92 0
v -2.24 -1.6 0
v -1.92 -1.6 0
v -8.32 -1.92 0
v -8.639999 -1.92 0
v -8.639999 -1.6 0
v -8.32 -1.6 0
v -8.639999 -1.92 0
v -8.96 -1.92 0
v -8.96 -1.6 0
v -8.639999 -1.6 0
v -1.28 -5.44 0
v -1.6 -5.44 0
v -1.6 -5.12 0
v -1.28 -5.12 0
v -1.6 -5.44 0
v -1.92 -5.44 0
v -1.92 -5.12 0
v -1.6 -5.12 0
v -6.08 -5.44 0
v -6.4 -5.44 0
v -6.4 -5.12 0
v -6.08 -5.12 0
v -6.4 -5.44 0
v -6.72 -5.44 0
v -6.72 -5.12 0
v -6.4 -5.12 0
v -8 -5.44 0
v -8.32 -5.44 0
v -8.32 -5.12 0
v -8 -5.12 0
v -8.32 -5.44 0
v -8.639999 -5.44 0
v -8.639999 -5.12 0
v -8.32 -5.12 0
v -8.639999 -5.44 0
v -8.96 -5.44 0
v -8.96 -5.12 0
v -8.639999 -5.12 0
v -1.28 -5.76 0
v -1.6 -5.76 0
v -1.6 -5.44 0
v -1.28 -5.44 0
v -1.6 -5.76 0
v -1.92 -5.76 0
v -1.92 -5.44 0
v -1.6 -5.44 0
v -6.08 -5.76 0
v -6.4 -5.76 0
v -6.4 -5.44 0
v -6.08 -5.44 0
v -6.4 -5.76 0
v -6.72 -5.76 0
v -6.72 -5.44 0
v -6.4 -5.44 0
v -8 -5.76 0
v -8.32 -5.76 0
v -8.32 -5.44 0
v -8 -5.44 0
v -8.32 -5.76 0
v -8.639999 -5.76 0
v -8.639999 -5.44 0
v -8.32 -5.44 0
v -8.639999 -5.76 0
v -8.96 -5.76 0
v -8.96 -5.44 0
v -8.639999 -5.44 0
v -2.88 -6.08 0
v -3.2 -6.08 0
v -3.2 -5.76 0
v -2.88 -5.76 0
v -3.2 -6.08 0
v -3.52 -6.08 0
v -3.52 -5.76 0
v -3.2 -5.76 0

# Texture cooridinates (Count = 27)
vt 0.8461539 0.6153846
vt 0.9230769 0.6153846
vt 0.9230769 0.6923077
vt 0.8461539 0.6923077
vt 1 0.6153846
vt 1 0.6923077
vt 0.6923077 0.4615384
vt 0.7692308 0.4615384
vt 0.7692308 0.5384616
vt 0.6923077 0.5384616
vt 0.8461539 0.4615384
vt 0.8461539 0.5384616
vt 0.6923077 0.3846154
vt 0.7692308 0.3846154
vt 0.8461539 0.3846154
vt 0.3076923 0.2307692
vt 0.3846154 0.2307692
vt 0.3846154 0.3076923
vt 0.3076923 0.3076923
vt 0.4615385 0.2307692
vt 0.4615385 0.3076923
vt 0.5384616 0.2307692
vt 0.5384616 0.3076923
vt 0.3076923 0.1538461
vt 0.3846154 0.1538461
vt 0.4615385 0.1538461
vt 0.5384616 0.1538461

# Normal
vn 0 0 -1

# Mesh description
g Mapa_mesh_0007

# Faces
f 1/1/1 2/2/1 3/3/1 4/4/1
f 5/2/1 6/5/1 7/6/1 8/3/1
f 9/7/1 10/8/1 11/9/1 12/10/1
f 13/8/1 14/11/1 15/12/1 16/9/1
f 17/13/1 18/14/1 19/8/1 20/7/1
f 21/14/1 22/15/1 23/11/1 24/8/1
f 25/16/1 26/17/1 27/18/1 28/19/1
f 29/17/1 30/20/1 31/21/1 32/18/1
f 33/20/1 34/22/1 35/23/1 36/21/1
f 37/24/1 38/25/1 39/17/1 40/16/1
f 41/25/1 42/26/1 43/20/1 44/17/1
f 45/26/1 46/27/1 47/22/1 48/20/1
f 49/1/1 50/2/1 51/3/1 52/4/1
f 53/2/1 54/5/1 55/6/1 56/3/1
f 57/7/1 58/8/1 59/9/1 60/10/1
f 61/8/1 62/11/1 63/12/1 64/9/1
f 65/7/1 66/8/1 67/9/1 68/10/1
f 69/8/1 70/11/1 71/12/1 72/9/1
f 73/16/1 74/17/1 75/18/1 76/19/1
f 77/17/1 78/20/1 79/21/1 80/18/1
f 81/20/1 82/22/1 83/23/1 84/21/1
f 85/13/1 86/14/1 87/8/1 88/7/1
f 89/14/1 90/15/1 91/11/1 92/8/1
f 93/13/1 94/14/1 95/8/1 96/7/1
f 97/14/1 98/15/1 99/11/1 100/8/1
f 101/24/1 102/25/1 103/17/1 104/16/1
f 105/25/1 106/26/1 107/20/1 108/17/1
f 109/26/1 110/27/1 111/22/1 112/20/1
f 113/1/1 114/2/1 115/3/1 116/4/1
f 117/2/1 118/5/1 119/6/1 120/3/1

