# Tiled2Unity generated file. Do not modify by hand.
# Wavefront file for 'Mapa_mesh_0005.obj'

# Vertices (Count = 144)
v -2.24 -0.96 0
v -2.56 -0.96 0
v -2.56 -0.64 0
v -2.24 -0.64 0
v -2.56 -0.96 0
v -2.88 -0.96 0
v -2.88 -0.64 0
v -2.56 -0.64 0
v -3.52 -1.28 0
v -3.84 -1.28 0
v -3.84 -0.96 0
v -3.52 -0.96 0
v -3.84 -1.28 0
v -4.16 -1.28 0
v -4.16 -0.96 0
v -3.84 -0.96 0
v -1.28 -2.24 0
v -1.6 -2.24 0
v -1.6 -1.92 0
v -1.28 -1.92 0
v -1.6 -2.24 0
v -1.92 -2.24 0
v -1.92 -1.92 0
v -1.6 -1.92 0
v -1.92 -2.24 0
v -2.24 -2.24 0
v -2.24 -1.92 0
v -1.92 -1.92 0
v -3.2 -2.24 0
v -3.52 -2.24 0
v -3.52 -1.92 0
v -3.2 -1.92 0
v -3.52 -2.24 0
v -3.84 -2.24 0
v -3.84 -1.92 0
v -3.52 -1.92 0
v -6.08 -2.24 0
v -6.4 -2.24 0
v -6.4 -1.92 0
v -6.08 -1.92 0
v -6.4 -2.24 0
v -6.72 -2.24 0
v -6.72 -1.92 0
v -6.4 -1.92 0
v -8.32 -2.24 0
v -8.639999 -2.24 0
v -8.639999 -1.92 0
v -8.32 -1.92 0
v -8.639999 -2.24 0
v -8.96 -2.24 0
v -8.96 -1.92 0
v -8.639999 -1.92 0
v -1.28 -2.56 0
v -1.6 -2.56 0
v -1.6 -2.24 0
v -1.28 -2.24 0
v -1.6 -2.56 0
v -1.92 -2.56 0
v -1.92 -2.24 0
v -1.6 -2.24 0
v -1.92 -2.56 0
v -2.24 -2.56 0
v -2.24 -2.24 0
v -1.92 -2.24 0
v -3.2 -2.56 0
v -3.52 -2.56 0
v -3.52 -2.24 0
v -3.2 -2.24 0
v -3.52 -2.56 0
v -3.84 -2.56 0
v -3.84 -2.24 0
v -3.52 -2.24 0
v -6.08 -2.56 0
v -6.4 -2.56 0
v -6.4 -2.24 0
v -6.08 -2.24 0
v -6.4 -2.56 0
v -6.72 -2.56 0
v -6.72 -2.24 0
v -6.4 -2.24 0
v -2.24 -4.8 0
v -2.56 -4.8 0
v -2.56 -4.48 0
v -2.24 -4.48 0
v -2.56 -4.8 0
v -2.88 -4.8 0
v -2.88 -4.48 0
v -2.56 -4.48 0
v -2.24 -5.12 0
v -2.56 -5.12 0
v -2.56 -4.8 0
v -2.24 -4.8 0
v -2.56 -5.12 0
v -2.88 -5.12 0
v -2.88 -4.8 0
v -2.56 -4.8 0
v -1.28 -6.08 0
v -1.6 -6.08 0
v -1.6 -5.76 0
v -1.28 -5.76 0
v -1.6 -6.08 0
v -1.92 -6.08 0
v -1.92 -5.76 0
v -1.6 -5.76 0
v -6.08 -6.08 0
v -6.4 -6.08 0
v -6.4 -5.76 0
v -6.08 -5.76 0
v -6.4 -6.08 0
v -6.72 -6.08 0
v -6.72 -5.76 0
v -6.4 -5.76 0
v -8 -6.08 0
v -8.32 -6.08 0
v -8.32 -5.76 0
v -8 -5.76 0
v -8.32 -6.08 0
v -8.639999 -6.08 0
v -8.639999 -5.76 0
v -8.32 -5.76 0
v -8.639999 -6.08 0
v -8.96 -6.08 0
v -8.96 -5.76 0
v -8.639999 -5.76 0
v -2.88 -6.4 0
v -3.2 -6.4 0
v -3.2 -6.08 0
v -2.88 -6.08 0
v -3.2 -6.4 0
v -3.52 -6.4 0
v -3.52 -6.08 0
v -3.2 -6.08 0
v -8 -6.4 0
v -8.32 -6.4 0
v -8.32 -6.08 0
v -8 -6.08 0
v -8.32 -6.4 0
v -8.639999 -6.4 0
v -8.639999 -6.08 0
v -8.32 -6.08 0
v -8.639999 -6.4 0
v -8.96 -6.4 0
v -8.96 -6.08 0
v -8.639999 -6.08 0

# Texture cooridinates (Count = 33)
vt 0.8461539 0.5384616
vt 0.9230769 0.5384616
vt 0.9230769 0.6153846
vt 0.8461539 0.6153846
vt 1 0.5384616
vt 1 0.6153846
vt 0.6923077 0.3076923
vt 0.7692308 0.3076923
vt 0.7692308 0.3846154
vt 0.6923077 0.3846154
vt 0.8461539 0.3076923
vt 0.8461539 0.3846154
vt 0.3076923 0.07692307
vt 0.3846154 0.07692307
vt 0.3846154 0.1538461
vt 0.3076923 0.1538461
vt 0.4615385 0.07692307
vt 0.4615385 0.1538461
vt 0.5384616 0.07692307
vt 0.5384616 0.1538461
vt 0.8461539 0.7692308
vt 0.9230769 0.7692308
vt 0.9230769 0.8461539
vt 0.8461539 0.8461539
vt 1 0.7692308
vt 1 0.8461539
vt 0.3076923 0
vt 0.3846154 0
vt 0.4615385 0
vt 0.5384616 0
vt 0.8461539 0.6923077
vt 0.9230769 0.6923077
vt 1 0.6923077

# Normal
vn 0 0 -1

# Mesh description
g Mapa_mesh_0005

# Faces
f 1/1/1 2/2/1 3/3/1 4/4/1
f 5/2/1 6/5/1 7/6/1 8/3/1
f 9/7/1 10/8/1 11/9/1 12/10/1
f 13/8/1 14/11/1 15/12/1 16/9/1
f 17/13/1 18/14/1 19/15/1 20/16/1
f 21/14/1 22/17/1 23/18/1 24/15/1
f 25/17/1 26/19/1 27/20/1 28/18/1
f 29/21/1 30/22/1 31/23/1 32/24/1
f 33/22/1 34/25/1 35/26/1 36/23/1
f 37/21/1 38/22/1 39/23/1 40/24/1
f 41/22/1 42/25/1 43/26/1 44/23/1
f 45/1/1 46/2/1 47/3/1 48/4/1
f 49/2/1 50/5/1 51/6/1 52/3/1
f 53/27/1 54/28/1 55/14/1 56/13/1
f 57/28/1 58/29/1 59/17/1 60/14/1
f 61/29/1 62/30/1 63/19/1 64/17/1
f 65/31/1 66/32/1 67/22/1 68/21/1
f 69/32/1 70/33/1 71/25/1 72/22/1
f 73/31/1 74/32/1 75/22/1 76/21/1
f 77/32/1 78/33/1 79/25/1 80/22/1
f 81/21/1 82/22/1 83/23/1 84/24/1
f 85/22/1 86/25/1 87/26/1 88/23/1
f 89/31/1 90/32/1 91/22/1 92/21/1
f 93/32/1 94/33/1 95/25/1 96/22/1
f 97/7/1 98/8/1 99/9/1 100/10/1
f 101/8/1 102/11/1 103/12/1 104/9/1
f 105/7/1 106/8/1 107/9/1 108/10/1
f 109/8/1 110/11/1 111/12/1 112/9/1
f 113/13/1 114/14/1 115/15/1 116/16/1
f 117/14/1 118/17/1 119/18/1 120/15/1
f 121/17/1 122/19/1 123/20/1 124/18/1
f 125/1/1 126/2/1 127/3/1 128/4/1
f 129/2/1 130/5/1 131/6/1 132/3/1
f 133/27/1 134/28/1 135/14/1 136/13/1
f 137/28/1 138/29/1 139/17/1 140/14/1
f 141/29/1 142/30/1 143/19/1 144/17/1

