# Tiled2Unity generated file. Do not modify by hand.
# Wavefront file for 'Mapa_mesh_0003.obj'

# Vertices (Count = 236)
v 0 -3.2 0
v -0.32 -3.2 0
v -0.32 -2.88 0
v 0 -2.88 0
v -0.32 -3.2 0
v -0.64 -3.2 0
v -0.64 -2.88 0
v -0.32 -2.88 0
v -0.64 -3.2 0
v -0.96 -3.2 0
v -0.96 -2.88 0
v -0.64 -2.88 0
v -0.96 -3.2 0
v -1.28 -3.2 0
v -1.28 -2.88 0
v -0.96 -2.88 0
v -3.84 -3.2 0
v -4.16 -3.2 0
v -4.16 -2.88 0
v -3.84 -2.88 0
v -4.16 -3.2 0
v -4.48 -3.2 0
v -4.48 -2.88 0
v -4.16 -2.88 0
v -4.48 -3.2 0
v -4.8 -3.2 0
v -4.8 -2.88 0
v -4.48 -2.88 0
v -4.8 -3.2 0
v -5.12 -3.2 0
v -5.12 -2.88 0
v -4.8 -2.88 0
v -5.12 -3.2 0
v -5.44 -3.2 0
v -5.44 -2.88 0
v -5.12 -2.88 0
v -5.44 -3.2 0
v -5.76 -3.2 0
v -5.76 -2.88 0
v -5.44 -2.88 0
v -5.76 -3.2 0
v -6.08 -3.2 0
v -6.08 -2.88 0
v -5.76 -2.88 0
v -8.96 -3.2 0
v -9.28 -3.2 0
v -9.28 -2.88 0
v -8.96 -2.88 0
v -9.28 -3.2 0
v -9.599999 -3.2 0
v -9.599999 -2.88 0
v -9.28 -2.88 0
v -9.599999 -3.2 0
v -9.92 -3.2 0
v -9.92 -2.88 0
v -9.599999 -2.88 0
v -9.92 -3.2 0
v -10.24 -3.2 0
v -10.24 -2.88 0
v -9.92 -2.88 0
v 0 -3.52 0
v -0.32 -3.52 0
v -0.32 -3.2 0
v 0 -3.2 0
v -0.32 -3.52 0
v -0.64 -3.52 0
v -0.64 -3.2 0
v -0.32 -3.2 0
v -0.64 -3.52 0
v -0.96 -3.52 0
v -0.96 -3.2 0
v -0.64 -3.2 0
v -4.16 -3.52 0
v -4.48 -3.52 0
v -4.48 -3.2 0
v -4.16 -3.2 0
v -4.48 -3.52 0
v -4.8 -3.52 0
v -4.8 -3.2 0
v -4.48 -3.2 0
v -4.8 -3.52 0
v -5.12 -3.52 0
v -5.12 -3.2 0
v -4.8 -3.2 0
v -5.12 -3.52 0
v -5.44 -3.52 0
v -5.44 -3.2 0
v -5.12 -3.2 0
v -5.44 -3.52 0
v -5.76 -3.52 0
v -5.76 -3.2 0
v -5.44 -3.2 0
v -9.28 -3.52 0
v -9.599999 -3.52 0
v -9.599999 -3.2 0
v -9.28 -3.2 0
v -9.599999 -3.52 0
v -9.92 -3.52 0
v -9.92 -3.2 0
v -9.599999 -3.2 0
v -9.92 -3.52 0
v -10.24 -3.52 0
v -10.24 -3.2 0
v -9.92 -3.2 0
v 0 -3.84 0
v -0.32 -3.84 0
v -0.32 -3.52 0
v 0 -3.52 0
v -0.32 -3.84 0
v -0.64 -3.84 0
v -0.64 -3.52 0
v -0.32 -3.52 0
v -0.64 -3.84 0
v -0.96 -3.84 0
v -0.96 -3.52 0
v -0.64 -3.52 0
v -4.16 -3.84 0
v -4.48 -3.84 0
v -4.48 -3.52 0
v -4.16 -3.52 0
v -4.48 -3.84 0
v -4.8 -3.84 0
v -4.8 -3.52 0
v -4.48 -3.52 0
v -4.8 -3.84 0
v -5.12 -3.84 0
v -5.12 -3.52 0
v -4.8 -3.52 0
v -5.12 -3.84 0
v -5.44 -3.84 0
v -5.44 -3.52 0
v -5.12 -3.52 0
v -5.44 -3.84 0
v -5.76 -3.84 0
v -5.76 -3.52 0
v -5.44 -3.52 0
v -9.28 -3.84 0
v -9.599999 -3.84 0
v -9.599999 -3.52 0
v -9.28 -3.52 0
v -9.599999 -3.84 0
v -9.92 -3.84 0
v -9.92 -3.52 0
v -9.599999 -3.52 0
v -9.92 -3.84 0
v -10.24 -3.84 0
v -10.24 -3.52 0
v -9.92 -3.52 0
v 0 -4.16 0
v -0.32 -4.16 0
v -0.32 -3.84 0
v 0 -3.84 0
v -0.32 -4.16 0
v -0.64 -4.16 0
v -0.64 -3.84 0
v -0.32 -3.84 0
v -0.64 -4.16 0
v -0.96 -4.16 0
v -0.96 -3.84 0
v -0.64 -3.84 0
v -4.16 -4.16 0
v -4.48 -4.16 0
v -4.48 -3.84 0
v -4.16 -3.84 0
v -4.48 -4.16 0
v -4.8 -4.16 0
v -4.8 -3.84 0
v -4.48 -3.84 0
v -4.8 -4.16 0
v -5.12 -4.16 0
v -5.12 -3.84 0
v -4.8 -3.84 0
v -5.12 -4.16 0
v -5.44 -4.16 0
v -5.44 -3.84 0
v -5.12 -3.84 0
v -5.44 -4.16 0
v -5.76 -4.16 0
v -5.76 -3.84 0
v -5.44 -3.84 0
v -9.28 -4.16 0
v -9.599999 -4.16 0
v -9.599999 -3.84 0
v -9.28 -3.84 0
v -9.599999 -4.16 0
v -9.92 -4.16 0
v -9.92 -3.84 0
v -9.599999 -3.84 0
v -9.92 -4.16 0
v -10.24 -4.16 0
v -10.24 -3.84 0
v -9.92 -3.84 0
v 0 -4.48 0
v -0.32 -4.48 0
v -0.32 -4.16 0
v 0 -4.16 0
v -0.32 -4.48 0
v -0.64 -4.48 0
v -0.64 -4.16 0
v -0.32 -4.16 0
v -0.64 -4.48 0
v -0.96 -4.48 0
v -0.96 -4.16 0
v -0.64 -4.16 0
v -4.16 -4.48 0
v -4.48 -4.48 0
v -4.48 -4.16 0
v -4.16 -4.16 0
v -4.48 -4.48 0
v -4.8 -4.48 0
v -4.8 -4.16 0
v -4.48 -4.16 0
v -4.8 -4.48 0
v -5.12 -4.48 0
v -5.12 -4.16 0
v -4.8 -4.16 0
v -5.12 -4.48 0
v -5.44 -4.48 0
v -5.44 -4.16 0
v -5.12 -4.16 0
v -5.44 -4.48 0
v -5.76 -4.48 0
v -5.76 -4.16 0
v -5.44 -4.16 0
v -9.28 -4.48 0
v -9.599999 -4.48 0
v -9.599999 -4.16 0
v -9.28 -4.16 0
v -9.599999 -4.48 0
v -9.92 -4.48 0
v -9.92 -4.16 0
v -9.599999 -4.16 0
v -9.92 -4.48 0
v -10.24 -4.48 0
v -10.24 -4.16 0
v -9.92 -4.16 0

# Texture cooridinates (Count = 28)
vt 0.375 0.9
vt 0.4375 0.9
vt 0.4375 1
vt 0.375 1
vt 0.5 0.9
vt 0.5 1
vt 0.5625 0.9
vt 0.5625 1
vt 0.625 0.9
vt 0.625 1
vt 0 0.9
vt 0.0625 0.9
vt 0.0625 1
vt 0 1
vt 0.125 0.9
vt 0.125 1
vt 0.1875 0.9
vt 0.1875 1
vt 0.25 0.9
vt 0.3125 0.9
vt 0.3125 1
vt 0.25 1
vt 0.125 0.8
vt 0.1875 0.8
vt 0.25 0.8
vt 0.3125 0.8
vt 0.375 0.8
vt 0.4375 0.8

# Normal
vn 0 0 -1

# Mesh description
g Mapa_mesh_0003

# Faces
f 1/1/1 2/2/1 3/3/1 4/4/1
f 5/2/1 6/5/1 7/6/1 8/3/1
f 9/5/1 10/7/1 11/8/1 12/6/1
f 13/7/1 14/9/1 15/10/1 16/8/1
f 17/11/1 18/12/1 19/13/1 20/14/1
f 21/12/1 22/15/1 23/16/1 24/13/1
f 25/15/1 26/17/1 27/18/1 28/16/1
f 29/19/1 30/20/1 31/21/1 32/22/1
f 33/2/1 34/5/1 35/6/1 36/3/1
f 37/5/1 38/7/1 39/8/1 40/6/1
f 41/7/1 42/9/1 43/10/1 44/8/1
f 45/11/1 46/12/1 47/13/1 48/14/1
f 49/12/1 50/15/1 51/16/1 52/13/1
f 53/15/1 54/17/1 55/18/1 56/16/1
f 57/17/1 58/19/1 59/22/1 60/18/1
f 61/23/1 62/24/1 63/17/1 64/15/1
f 65/24/1 66/25/1 67/19/1 68/17/1
f 69/25/1 70/26/1 71/20/1 72/19/1
f 73/23/1 74/24/1 75/17/1 76/15/1
f 77/24/1 78/25/1 79/19/1 80/17/1
f 81/25/1 82/26/1 83/20/1 84/19/1
f 85/26/1 86/27/1 87/1/1 88/20/1
f 89/27/1 90/28/1 91/2/1 92/1/1
f 93/23/1 94/24/1 95/17/1 96/15/1
f 97/24/1 98/25/1 99/19/1 100/17/1
f 101/25/1 102/26/1 103/20/1 104/19/1
f 105/23/1 106/24/1 107/17/1 108/15/1
f 109/24/1 110/25/1 111/19/1 112/17/1
f 113/25/1 114/26/1 115/20/1 116/19/1
f 117/23/1 118/24/1 119/17/1 120/15/1
f 121/24/1 122/25/1 123/19/1 124/17/1
f 125/25/1 126/26/1 127/20/1 128/19/1
f 129/26/1 130/27/1 131/1/1 132/20/1
f 133/27/1 134/28/1 135/2/1 136/1/1
f 137/23/1 138/24/1 139/17/1 140/15/1
f 141/24/1 142/25/1 143/19/1 144/17/1
f 145/25/1 146/26/1 147/20/1 148/19/1
f 149/23/1 150/24/1 151/17/1 152/15/1
f 153/24/1 154/25/1 155/19/1 156/17/1
f 157/25/1 158/26/1 159/20/1 160/19/1
f 161/23/1 162/24/1 163/17/1 164/15/1
f 165/24/1 166/25/1 167/19/1 168/17/1
f 169/25/1 170/26/1 171/20/1 172/19/1
f 173/26/1 174/27/1 175/1/1 176/20/1
f 177/27/1 178/28/1 179/2/1 180/1/1
f 181/23/1 182/24/1 183/17/1 184/15/1
f 185/24/1 186/25/1 187/19/1 188/17/1
f 189/25/1 190/26/1 191/20/1 192/19/1
f 193/23/1 194/24/1 195/17/1 196/15/1
f 197/24/1 198/25/1 199/19/1 200/17/1
f 201/25/1 202/26/1 203/20/1 204/19/1
f 205/23/1 206/24/1 207/17/1 208/15/1
f 209/24/1 210/25/1 211/19/1 212/17/1
f 213/25/1 214/26/1 215/20/1 216/19/1
f 217/26/1 218/27/1 219/1/1 220/20/1
f 221/27/1 222/28/1 223/2/1 224/1/1
f 225/23/1 226/24/1 227/17/1 228/15/1
f 229/24/1 230/25/1 231/19/1 232/17/1
f 233/25/1 234/26/1 235/20/1 236/19/1

